<?xml version="1.0" encoding="UTF-8"?>
<svg xmlns="http://www.w3.org/2000/svg" viewBox="-100 50 700 1000" width="700" height="1000">
  <g id="modern_character_root">
    <!-- 1. Legs, Trousers & Modern Designer Sneakers -->
    
    <!-- Pelvis & Upper Pants -->
    <path d="M 210 526 L 290 526 L 296 575 L 250 585 L 204 575 Z" fill="#1e293b" stroke="#0f172a" stroke-width="2.5" />

    <!-- Left Leg (Tailored modern slate tech chinos) -->
    <path d="M 206 575 L 246 580 L 240 750 L 204 750 Z" fill="#1e293b" stroke="#0f172a" stroke-width="2" />
    <path d="M 204 750 L 240 750 L 235 915 L 202 915 Z" fill="#1e293b" stroke="#0f172a" stroke-width="2" />
    <rect x="198" y="908" width="40" height="16" rx="4" fill="#334155" />

    <!-- Right Leg -->
    <path d="M 254 580 L 294 575 L 296 750 L 260 750 Z" fill="#0f172a" stroke="#0f172a" stroke-width="2" />
    <path d="M 260 750 L 296 750 L 298 915 L 265 915 Z" fill="#0f172a" stroke="#0f172a" stroke-width="2" />
    <rect x="262" y="908" width="40" height="16" rx="4" fill="#334155" />

    <!-- Left Modern Designer Sneaker -->
    <path d="M 156 955 L 234 955 L 234 928 L 200 922 L 160 938 Z" fill="#ffffff" stroke="#0f172a" stroke-width="2" />
    <rect x="152" y="952" width="85" height="10" rx="3" fill="#e2e8f0" stroke="#0f172a" stroke-width="1.5" />
    <line x1="178" y1="934" x2="204" y2="934" stroke="#38bdf8" stroke-width="2.5" stroke-linecap="round" />

    <!-- Right Modern Designer Sneaker -->
    <path d="M 266 955 L 344 955 L 340 938 L 300 922 L 266 928 Z" fill="#ffffff" stroke="#0f172a" stroke-width="2" />
    <rect x="263" y="952" width="85" height="10" rx="3" fill="#e2e8f0" stroke="#0f172a" stroke-width="1.5" />
    <line x1="296" y1="934" x2="322" y2="934" stroke="#38bdf8" stroke-width="2.5" stroke-linecap="round" />
  

    <!-- 2. Torso, Inner Tee & Modern Tech Overshirt (Base Layer) -->
    
    <!-- Minimalist Crewneck Inner Tee (Off-white / heather) -->
    <path d="M 225 338 Q 250 355 275 338 L 285 410 L 215 410 Z" fill="#f8fafc" stroke="#94a3b8" stroke-width="1.5" />
    <path d="M 230 338 Q 250 354 270 338" stroke="#cbd5e1" stroke-width="2" fill="none" />

    <!-- Sleek Tech Creator Overshirt / Bomber Jacket -->
    <!-- Left Collar & Lapel -->
    <path d="M 210 340 L 160 375 L 175 510 L 235 510 L 230 400 L 225 340 Z" fill="#1e293b" stroke="#0f172a" stroke-width="2.5" stroke-linejoin="round" />
    <!-- Right Collar & Lapel -->
    <path d="M 290 340 L 340 375 L 325 510 L 265 510 L 270 400 L 275 340 Z" fill="#0f172a" stroke="#0f172a" stroke-width="2.5" stroke-linejoin="round" />

    <!-- Front Center Zipper / Placket -->
    <line x1="250" y1="395" x2="250" y2="510" stroke="#0284c7" stroke-width="2" stroke-linecap="round" />
    
    <!-- Minimalist Chest Pocket with Glowing Tech Accent Line -->
    <rect x="185" y="415" width="38" height="42" rx="4" fill="#0f172a" stroke="#334155" stroke-width="1.5" />
    <line x1="188" y1="422" x2="220" y2="422" stroke="#38bdf8" stroke-width="2" stroke-linecap="round" />

    <!-- Belt & Waistline -->
    <rect x="210" y="508" width="80" height="18" rx="3" fill="#0f172a" stroke="#0f172a" stroke-width="2" />
    <rect x="242" y="511" width="16" height="12" rx="2" fill="#38bdf8" opacity="0.8" />
  

    <!-- 3. Arms, Forearms, Hands & Smartwatch (Rendered IN FRONT of Torso to prevent clipping into back) -->
    
      <!-- Surprised / Astonished: Both hands raised near chest/shoulders -->
      <path d="M 165 372 C 150 405, 135 440, 120 460 L 138 468 C 152 440, 168 405, 185 375 Z" fill="#1e293b" stroke="#0f172a" stroke-width="2.5" />
      <path d="M 122 460 C 114 430, 108 395, 102 360 L 118 356 C 124 390, 130 425, 138 460 Z" fill="#eab383" stroke="#0f172a" stroke-width="2" />
      <!-- Left Hand (Open palm facing camera in astonishment) -->
      <ellipse cx="106" cy="350" rx="14" ry="12" fill="#eab383" stroke="#0f172a" stroke-width="2" />
      <path d="M 96 342 C 92 334, 88 324, 86 314 C 91 312, 95 316, 98 326 Z" fill="#eab383" stroke="#0f172a" stroke-width="1.8" />
      <path d="M 103 340 C 102 330, 101 320, 100 310 C 105 310, 108 314, 108 324 Z" fill="#eab383" stroke="#0f172a" stroke-width="1.8" />
      <path d="M 110 341 C 112 331, 114 321, 116 312 C 120 314, 120 318, 118 326 Z" fill="#eab383" stroke="#0f172a" stroke-width="1.8" />

      <path d="M 315 372 C 330 405, 345 440, 360 460 L 342 468 C 328 440, 312 405, 295 375 Z" fill="#0f172a" stroke="#0f172a" stroke-width="2.5" />
      <path d="M 358 460 C 366 430, 372 395, 378 360 L 362 356 C 356 390, 350 425, 342 460 Z" fill="#eab383" stroke="#0f172a" stroke-width="2" />
      <!-- Right Hand (Open palm facing camera) -->
      <ellipse cx="374" cy="350" rx="14" ry="12" fill="#eab383" stroke="#0f172a" stroke-width="2" />
      <path d="M 384 342 C 388 334, 392 324, 394 314 C 389 312, 385 316, 382 326 Z" fill="#eab383" stroke="#0f172a" stroke-width="1.8" />
      <path d="M 377 340 C 378 330, 379 320, 380 310 C 375 310, 372 314, 372 324 Z" fill="#eab383" stroke="#0f172a" stroke-width="1.8" />
      <path d="M 370 341 C 368 331, 366 321, 364 312 C 360 314, 360 318, 362 326 Z" fill="#eab383" stroke="#0f172a" stroke-width="1.8" />
    

    <!-- 4. Sculpted Human Head, Face, Hair, Eyes & Anatomical Lips -->
    
    

    <!-- Neck with Natural Trapezius Contours -->
    <path d="M 234 295 L 230 338 L 270 338 L 266 295 Z" fill="#eab383" stroke="#1e293b" stroke-width="2" />
    <path d="M 245 295 L 230 338 L 270 338 Z" fill="#d09564" opacity="0.25" />

    <!-- Left Ear with Natural Helix -->
    <ellipse cx="192" cy="225" rx="11" ry="16" fill="#eab383" stroke="#1e293b" stroke-width="2" />
    <path d="M 194 216 Q 188 223 194 231" stroke="#d09564" stroke-width="2" fill="none" stroke-linecap="round" />

    <!-- Right Ear with Natural Helix -->
    <ellipse cx="308" cy="225" rx="11" ry="16" fill="#eab383" stroke="#1e293b" stroke-width="2" />
    <path d="M 306 216 Q 312 223 306 231" stroke="#d09564" stroke-width="2" fill="none" stroke-linecap="round" />

    <!-- Human Head & Jaw Structure -->
    <path d="M 198 175 
             C 198 150, 302 150, 302 175 
             C 302 210, 300 240, 285 272 
             C 272 298, 258 304, 250 304 
             C 242 304, 228 298, 215 272 
             C 200 240, 198 210, 198 175 Z" 
          fill="#eab383" stroke="#1e293b" stroke-width="2.5" />

    <!-- Natural Jaw and Cheek Contour Shading -->
    <path d="M 250 304 C 258 304, 272 298, 285 272 C 295 250, 298 225, 298 200 C 280 230, 260 280, 250 304 Z" fill="#d09564" opacity="0.3" />
    
    <!-- Subtle Cheek Health Glow -->
    <ellipse cx="218" cy="238" rx="10" ry="6" fill="#e28878" opacity="0.35" />
    <ellipse cx="282" cy="238" rx="10" ry="6" fill="#e28878" opacity="0.35" />

    <!-- Modern Textured Creator Hairstyle (Clean textured crop / fade) -->
    <path d="M 194 185
             C 190 150, 210 120, 250 116
             C 278 114, 304 130, 308 165
             C 310 185, 306 195, 302 195
             C 300 178, 294 152, 280 142
             C 265 132, 235 134, 215 152
             C 202 164, 196 178, 194 185 Z"
          fill="#1f1917" stroke="#0f172a" stroke-width="2.5" />

    <!-- Modern Textured Hair Locks & Highlights -->
    <path d="M 220 142 Q 238 126 256 138" stroke="#382a26" stroke-width="4" stroke-linecap="round" fill="none" />
    <path d="M 245 132 Q 262 122 280 134" stroke="#4e3b36" stroke-width="3" stroke-linecap="round" fill="none" />
    <path d="M 205 160 Q 215 145 230 155" stroke="#382a26" stroke-width="3.5" stroke-linecap="round" fill="none" />

    <!-- Eyebrows (Sculpted, naturally arched) -->
    <path d="M 206 186 Q 225 176 245 184" stroke="#1f1917" stroke-width="4.5" stroke-linecap="round" fill="none" />
    <path d="M 255 184 Q 275 176 294 186" stroke="#1f1917" stroke-width="4.5" stroke-linecap="round" fill="none" />

    <!-- Eyes (Sclera, Iris, Catchlight) -->
    <ellipse cx="225" cy="215" rx="15" ry="16" fill="#ffffff" stroke="#1e293b" stroke-width="2" />
       <!-- Iris -->
       <circle cx="225" cy="215" r="8.5" fill="#382218" stroke="#1c1917" stroke-width="1.5" />
       <!-- Pupil -->
       <circle cx="225" cy="215" r="4.5" fill="#090706" />
       <!-- Catchlight reflection -->
       <circle cx="222" cy="212" r="2.5" fill="#ffffff" opacity="0.9" />
       <circle cx="227" cy="217" r="1.2" fill="#ffffff" opacity="0.7" />
    <ellipse cx="275" cy="215" rx="15" ry="16" fill="#ffffff" stroke="#1e293b" stroke-width="2" />
       <!-- Iris -->
       <circle cx="275" cy="215" r="8.5" fill="#382218" stroke="#1c1917" stroke-width="1.5" />
       <!-- Pupil -->
       <circle cx="275" cy="215" r="4.5" fill="#090706" />
       <!-- Catchlight reflection -->
       <circle cx="272" cy="212" r="2.5" fill="#ffffff" opacity="0.9" />
       <circle cx="277" cy="217" r="1.2" fill="#ffffff" opacity="0.7" />

    <!-- Natural Sculpted Human Nose (Refined shading, no clown triangle!) -->
    <path d="M 248 214 L 246 244 Q 242 250 250 252 Q 258 250 254 244 L 252 214" fill="#d09564" opacity="0.35" />
    <path d="M 244 249 Q 250 254 256 249" stroke="#d09564" stroke-width="2.5" stroke-linecap="round" fill="none" />
    <circle cx="242" cy="249" r="1.5" fill="#451a03" />
    <circle cx="258" cy="249" r="1.5" fill="#451a03" />

    <!-- Mouth -->
    
      <!-- Expressive Surprised O-Mouth with Natural Lip Contours -->
      <ellipse cx="250" cy="275" rx="9" ry="11" fill="#350b12" stroke="#5c2417" stroke-width="1.2" />
      <path d="M 245 266 Q 250 268 255 266" stroke="#f8fafc" stroke-width="1.5" stroke-linecap="round" fill="none" />
      <path d="M 241 267 C 245 264, 255 264, 259 267 C 262 273, 261 283, 257 286 C 253 288, 247 288, 243 286 C 239 283, 238 273, 241 267 Z" stroke="#c77864" stroke-width="1.4" fill="none" />
      <path d="M 244 289 Q 250 291 256 289" stroke="#d09564" stroke-width="1.4" fill="none" opacity="0.4" stroke-linecap="round" />
    
  
  </g>
</svg>